<svg viewBox="0 0 1024 1024" xmlns="http://www.w3.org/2000/svg" width="100%" height="100%" fill="currentColor"><path d="M323.33 256m188.67 0l0 0q188.67 0 188.67 188.67l0 134.66q0 188.67-188.67 188.67l0 0q-188.67 0-188.67-188.67l0-134.66q0-188.67 188.67-188.67Z"></path><path d="M256 384m32 0l448 0q32 0 32 32l0 0q0 32-32 32l-448 0q-32 0-32-32l0 0q0-32 32-32Z"></path><path d="M256 512m32 0l448 0q32 0 32 32l0 0q0 32-32 32l-448 0q-32 0-32-32l0 0q0-32 32-32Z"></path><path d="M256 640m32 0l448 0q32 0 32 32l0 0q0 32-32 32l-448 0q-32 0-32-32l0 0q0-32 32-32Z"></path><path d="M448 576m32 0l64 0q32 0 32 32l0 0q0 32-32 32l-64 0q-32 0-32-32l0 0q0-32 32-32Z"></path><path d="M448 448m32 0l64 0q32 0 32 32l0 0q0 32-32 32l-64 0q-32 0-32-32l0 0q0-32 32-32Z"></path><path d="M348.113092 233.37534m22.627417-22.627417l0 0q22.627417-22.627417 45.254834 0l45.254834 45.254834q22.627417 22.627417 0 45.254834l0 0q-22.627417 22.627417-45.254834 0l-45.254834-45.254834q-22.627417-22.627417 0-45.254834Z"></path><path d="M630.628831 188.118335m22.627417 22.627417l0 0q22.627417 22.627417 0 45.254834l-45.254834 45.254834q-22.627417 22.627417-45.254834 0l0 0q-22.627417-22.627417 0-45.254834l45.254834-45.254834q22.627417-22.627417 45.254834 0Z"></path></svg>
