<svg viewBox="0 0 1024 1024" xmlns="http://www.w3.org/2000/svg" width="100%" height="100%" fill="currentColor"><path d="M512 96C282.2 96 96 282.2 96 512s186.2 416 416 416c70.7 0 137.5-17.6 196-48.8 25.4-12.8 27.9-47.6 6.4-66.2-48.7-42.1-79.6-104.3-79.6-174.2s30.9-132.1 79.6-174.2c21.5-18.6 19-53.4-6.4-66.2C649.5 113.6 582.7 96 512 96z"/><path d="M512 304c-114.9 0-208 93.1-208 208s93.1 208 208 208 208-93.1 208-208-93.1-208-208-208zm0 96c61.9 0 112 50.1 112 112s-50.1 112-112 112-112-50.1-112-112 50.1-112 112-112z"/></svg>
