<svg viewBox="0 0 1024 1024" xmlns="http://www.w3.org/2000/svg" width="100%" height="100%" fill="currentColor"><path d="M381.653333 368.853333a398.506667 398.506667 0 0 0 106.666667 59.733334 647.04 647.04 0 0 0 213.333333 38.186666h10.453334A1713.28 1713.28 0 0 1 513.493333 597.333333a1735.893333 1735.893333 0 0 1-213.333333 106.666667 648.533333 648.533333 0 0 0 78.933333-213.333333 395.733333 395.733333 0 0 0 1.493334-121.813334m-128-242.986666A19.626667 19.626667 0 0 0 234.666667 152.746667c40.106667 104.32 78.506667 234.666667 61.866666 321.92a520.533333 520.533333 0 0 1-157.013333 294.4A36.266667 36.266667 0 0 0 163.84 832 35.626667 35.626667 0 0 0 170.666667 832c109.226667-18.773333 234.666667-73.386667 385.706666-160s260.266667-169.6 331.093334-254.933333a36.266667 36.266667 0 0 0-27.52-59.52 38.4 38.4 0 0 0-10.666667 1.706666 523.733333 523.733333 0 0 1-149.333333 21.333334 564.053333 564.053333 0 0 1-185.173334-33.493334c-83.626667-29.013333-177.493333-128-247.893333-214.613333a19.2 19.2 0 0 0-14.933333-7.466667z m506.666666 475.093333a2031.786667 2031.786667 0 0 1-177.706666 114.133333 1971.84 1971.84 0 0 1-187.733334 96.853334 557.226667 557.226667 0 0 1 249.386667 79.786666 39.893333 39.893333 0 0 0 21.333333 6.4A39.253333 39.253333 0 0 0 704 856.746667a558.72 558.72 0 0 1 55.68-256z"></path></svg>
