<svg viewBox="0 0 1024 1024" xmlns="http://www.w3.org/2000/svg" width="100%" height="100%" fill="currentColor"><path d="M469.333333 170.666667c27.690667 0 53.333333 8.789333 74.282667 23.722666-55.125333 28.714667-105.813333 64.853333-159.616 95.914667l42.666667 73.898667c67.2-38.826667 130.218667-87.466667 203.093333-115.456a128.042667 128.042667 0 0 1 173.098667 131.84C750.421333 347.178667 693.76 321.322667 640 290.304l-42.666667 73.898667c67.2 38.826667 140.885333 69.034667 201.514667 118.186666a128.042667 128.042667 0 0 1-27.648 215.808C773.973333 636.074667 768 574.08 768 512h-85.333333c0 77.568 10.666667 156.501333-1.578667 233.642667a128.042667 128.042667 0 0 1-200.746667 83.925333c55.168-28.714667 105.898667-64.853333 159.658667-95.872l-42.666667-73.898667c-67.2 38.826667-130.218667 87.466667-203.093333 115.456a128.042667 128.042667 0 0 1-173.098667-131.84c52.48 33.365333 109.098667 59.221333 162.858667 90.282667l42.666667-73.898667c-67.2-38.826667-140.885333-69.034667-201.557334-118.186666a128.042667 128.042667 0 0 1 27.690667-215.808C250.026667 387.925333 256 449.92 256 512h85.333333c0-77.568-10.666667-156.544 1.578667-233.642667A128.042667 128.042667 0 0 1 469.333333 170.666667z m161.834667-11.008a213.376 213.376 0 0 0-364.714667 72.96 213.376 213.376 0 0 0-119.168 352.341333 213.376 213.376 0 0 0 245.589334 279.381333 213.376 213.376 0 0 0 364.714666-72.96 213.376 213.376 0 0 0 119.168-352.341333 213.376 213.376 0 0 0-245.589333-279.381333z"></path></svg>
